<svg aria-hidden="true" style="width:0;height:0;position:absolute;overflow:hidden" xmlns="http://www.w3.org/2000/svg"><defs><symbol id="page" viewBox="0 0 32 32"><path d="M28.681 7.159c-.694-.947-1.662-2.053-2.724-3.116s-2.169-2.03-3.116-2.724C21.229.137 20.448 0 20 0H4.5A2.503 2.503 0 0 0 2 2.5v27C2 30.878 3.122 32 4.5 32h23c1.378 0 2.5-1.122 2.5-2.5V10c0-.448-.137-1.23-1.319-2.841zm-4.138-1.702A27.334 27.334 0 0 1 26.811 8H22V3.189a27.334 27.334 0 0 1 2.543 2.268zM28 29.5c0 .271-.229.5-.5.5h-23a.507.507 0 0 1-.5-.5v-27c0-.271.229-.5.5-.5H20v7a1 1 0 0 0 1 1h7v19.5z"/></symbol><symbol id="chat" viewBox="0 0 36 32"><path d="M15 4c-1.583 0-3.112.248-4.543.738-1.341.459-2.535 1.107-3.547 1.926C5.034 8.182 4 10.127 4 12.138c0 1.125.315 2.217.935 3.247.646 1.073 1.622 2.056 2.821 2.842a3.998 3.998 0 0 1 1.761 2.748c.028.187.051.375.068.564.085-.079.169-.16.254-.244a4 4 0 0 1 3.326-1.134c.605.077 1.223.116 1.836.116 1.583 0 3.112-.248 4.543-.738 1.341-.459 2.535-1.107 3.547-1.926 1.876-1.518 2.91-3.463 2.91-5.474s-1.033-3.956-2.91-5.474c-1.012-.819-2.206-1.467-3.547-1.926a13.992 13.992 0 0 0-4.543-.738zm0-4c8.284 0 15 5.435 15 12.139s-6.716 12.139-15 12.139c-.796 0-1.576-.051-2.339-.147C9.439 27.34 5.718 27.916 2 28v-.785c2.008-.98 3.625-2.765 3.625-4.804 0-.285-.022-.564-.063-.837C2.17 19.349 0 15.949 0 12.14 0 5.436 6.716.001 15 .001zm16.125 27.209c0 1.748 1.135 3.278 2.875 4.118V32c-3.223-.072-6.181-.566-8.973-3.316-.661.083-1.337.126-2.027.126-2.983 0-5.732-.805-7.925-2.157 4.521-.016 8.789-1.464 12.026-4.084 1.631-1.32 2.919-2.87 3.825-4.605.961-1.84 1.449-3.799 1.449-5.825 0-.326-.014-.651-.039-.974C34.604 13.038 36 15.591 36 18.405c0 3.265-1.88 6.179-4.82 8.086a4.722 4.722 0 0 0-.055.718z"/></symbol><symbol id="spinner" viewBox="0 0 32 32"><path d="M16 9.472a1.865 1.865 0 0 1-1.865-1.865V2.011a1.865 1.865 0 0 1 3.73 0v5.596c0 1.03-.835 1.865-1.865 1.865zM16 31.155a1.166 1.166 0 0 1-1.166-1.166v-5.596a1.166 1.166 0 1 1 2.332 0v5.596c0 .644-.522 1.166-1.166 1.166zM11.805 10.48a1.749 1.749 0 0 1-1.516-.875L7.491 4.759A1.75 1.75 0 0 1 10.52 3.01l2.798 4.846a1.75 1.75 0 0 1-1.513 2.624zM22.995 29.164a1.05 1.05 0 0 1-.91-.525l-2.798-4.846a1.049 1.049 0 1 1 1.817-1.049l2.798 4.846a1.049 1.049 0 0 1-.908 1.574zM8.729 13.436c-.277 0-.557-.07-.814-.219l-4.846-2.798a1.631 1.631 0 1 1 1.632-2.826l4.846 2.798a1.631 1.631 0 0 1-.818 3.045zM28.114 23.927a.923.923 0 0 1-.465-.125l-4.846-2.798a.932.932 0 1 1 .933-1.615l4.846 2.798a.932.932 0 0 1-.468 1.74zM7.607 17.515H2.011a1.515 1.515 0 1 1 0-3.03h5.596a1.515 1.515 0 1 1 0 3.03zM29.989 16.933h-5.596a.933.933 0 0 1 0-1.866h5.596a.933.933 0 0 1 0 1.866zM3.886 24.394a1.399 1.399 0 0 1-.701-2.611l4.846-2.798a1.398 1.398 0 1 1 1.399 2.423l-4.846 2.798c-.22.127-.461.188-.698.188zM23.27 12.736a.934.934 0 0 1-.468-1.74l4.846-2.798a.933.933 0 0 1 .933 1.615l-4.846 2.798a.925.925 0 0 1-.465.125zM9.004 29.397a1.283 1.283 0 0 1-1.109-1.924l2.798-4.846a1.283 1.283 0 0 1 2.221 1.283l-2.798 4.846a1.281 1.281 0 0 1-1.112.641zM20.196 9.664a.932.932 0 0 1-.806-1.399l2.798-4.846a.932.932 0 1 1 1.615.933l-2.798 4.846a.932.932 0 0 1-.809.466z"/></symbol><symbol id="spinner-right" viewBox="0 0 32 32"><path d="M32 12H20l4.485-4.485C22.218 5.249 19.205 4 16 4S9.781 5.248 7.515 7.515C5.249 9.782 4 12.795 4 16s1.248 6.219 3.515 8.485C9.782 26.751 12.795 28 16 28s6.219-1.248 8.485-3.515c.189-.189.371-.384.546-.583l3.01 2.634A15.96 15.96 0 0 1 16 32C7.163 32 0 24.837 0 16S7.163 0 16 0c4.418 0 8.418 1.791 11.313 4.687L32 0v12z"/></symbol><symbol id="search" viewBox="0 0 32 32"><path d="m31.008 27.231-7.58-6.447c-.784-.705-1.622-1.029-2.299-.998a11.954 11.954 0 0 0 2.87-7.787c0-6.627-5.373-12-12-12s-12 5.373-12 12 5.373 12 12 12c2.972 0 5.691-1.081 7.787-2.87-.031.677.293 1.515.998 2.299l6.447 7.58c1.104 1.226 2.907 1.33 4.007.23s.997-2.903-.23-4.007zM12 20a8 8 0 1 1 0-16 8 8 0 0 1 0 16z"/></symbol><symbol id="download" viewBox="0 0 32 32"><path d="M28 16h-5l-7 7-7-7H4l-4 8v2h32v-2l-4-8zM0 28h32v2H0v-2zm18-18V2h-4v8H7l9 9 9-9h-7z"/></symbol><symbol id="eye" viewBox="0 0 32 32"><path d="M16 6C9.021 6 2.972 10.064 0 16c2.972 5.936 9.021 10 16 10s13.027-4.064 16-10c-2.972-5.936-9.021-10-16-10zm7.889 5.303A15.212 15.212 0 0 1 28.559 16a15.223 15.223 0 0 1-4.67 4.697C21.527 22.204 18.799 23 16 23s-5.527-.796-7.889-2.303A15.212 15.212 0 0 1 3.441 16a15.223 15.223 0 0 1 5.041-4.925 8 8 0 1 0 15.036 0c.124.074.248.15.371.228zM16 13a3 3 0 1 1-6 0 3 3 0 0 1 6 0z"/></symbol><symbol id="heart" viewBox="0 0 32 32"><path d="M23.6 2c-3.363 0-6.258 2.736-7.599 5.594C14.659 4.736 11.764 2 8.4 2 3.763 2 0 5.764 0 10.401c0 9.433 9.516 11.906 16.001 21.232C22.131 22.365 32 19.533 32 10.401 32 5.764 28.237 2 23.6 2z"/></symbol><symbol id="right" viewBox="0 0 32 32"><path d="M16 0C7.163 0 0 7.163 0 16s7.163 16 16 16 16-7.163 16-16S24.837 0 16 0zm0 29C8.82 29 3 23.18 3 16S8.82 3 16 3s13 5.82 13 13-5.82 13-13 13z"/><path d="m11.086 22.086 2.829 2.829 8.914-8.914-8.914-8.914-2.828 2.828 6.086 6.086z"/></symbol><symbol id="circle-left" viewBox="0 0 32 32"><path d="M16 32c8.837 0 16-7.163 16-16S24.837 0 16 0 0 7.163 0 16s7.163 16 16 16zm0-29c7.18 0 13 5.82 13 13s-5.82 13-13 13S3 23.18 3 16 8.82 3 16 3z"/><path d="m20.914 9.914-2.829-2.829-8.914 8.914 8.914 8.914 2.828-2.828-6.086-6.086z"/></symbol><symbol id="settings" viewBox="0 0 32 32"><path d="M29.181 19.07c-1.679-2.908-.669-6.634 2.255-8.328l-3.145-5.447a6.022 6.022 0 0 1-3.058.829c-3.361 0-6.085-2.742-6.085-6.125h-6.289a6.023 6.023 0 0 1-.811 3.07C10.369 5.977 6.637 6.966 3.709 5.28L.565 10.727a6.023 6.023 0 0 1 2.246 2.234c1.676 2.903.672 6.623-2.241 8.319l3.145 5.447a6.022 6.022 0 0 1 3.044-.82c3.35 0 6.067 2.725 6.084 6.092h6.289a6.032 6.032 0 0 1 .811-3.038c1.676-2.903 5.399-3.894 8.325-2.219l3.145-5.447a6.032 6.032 0 0 1-2.232-2.226zM16 22.479A6.48 6.48 0 1 1 16 9.52a6.48 6.48 0 0 1 0 12.959z"/></symbol><symbol id="pages" viewBox="0 0 32 32"><path d="M28.681 11.159c-.694-.947-1.662-2.053-2.724-3.116s-2.169-2.03-3.116-2.724C21.229 4.137 20.448 4 20 4H8.5A2.503 2.503 0 0 0 6 6.5v23C6 30.878 7.121 32 8.5 32h19c1.378 0 2.5-1.122 2.5-2.5V14c0-.448-.137-1.23-1.319-2.841zm-4.138-1.702A27.334 27.334 0 0 1 26.811 12H22V7.189a27.334 27.334 0 0 1 2.543 2.268zM28 29.5c0 .271-.229.5-.5.5h-19a.507.507 0 0 1-.5-.5v-23c0-.271.229-.5.5-.5H20v7a1 1 0 0 0 1 1h7v15.5z"/><path d="M18.841 1.319C17.229.137 16.448 0 16 0H4.5A2.503 2.503 0 0 0 2 2.5v23c0 1.207.86 2.217 2 2.45V2.5c0-.271.229-.5.5-.5h15.215a19.873 19.873 0 0 0-.873-.681z"/></symbol><symbol id="close" viewBox="0 0 32 32"><path d="M16 0C7.163 0 0 7.163 0 16s7.163 16 16 16 16-7.163 16-16S24.837 0 16 0zm0 29C8.82 29 3 23.18 3 16S8.82 3 16 3s13 5.82 13 13-5.82 13-13 13z"/><path d="m21 8-5 5-5-5-3 3 5 5-5 5 3 3 5-5 5 5 3-3-5-5 5-5z"/></symbol><symbol id="close2" viewBox="0 0 32 32"><path d="M31.708 25.708 22 16l9.708-9.708a1 1 0 0 0 0-1.414L27.122.292a1 1 0 0 0-1.414-.001L16 9.999 6.292.291a.998.998 0 0 0-1.414.001L.292 4.878a1 1 0 0 0 0 1.414L10 16 .292 25.708a.999.999 0 0 0 0 1.414l4.586 4.586a1 1 0 0 0 1.414 0L16 22l9.708 9.708a1 1 0 0 0 1.414 0l4.586-4.586a.999.999 0 0 0 0-1.414z"/></symbol></defs></svg>